<svg xmlns="http://www.w3.org/2000/svg" width="712" height="75" fill="none" viewBox="0 0 712 75">
  <path fill="#2B1867" d="M.586 36.586a2 2 0 0 0 0 2.828l12.728 12.728a2 2 0 1 0 2.828-2.828L4.828 38l11.314-11.314a2 2 0 1 0-2.828-2.828L.586 36.586ZM224 36H2v4h222v-4Zm487.414 3.414a2 2 0 0 0 0-2.828l-12.728-12.728a2 2 0 1 0-2.828 2.828L707.172 38l-11.314 11.314a2 2 0 0 0 2.828 2.828l12.728-12.728ZM710 36H487v4h223v-4Z"/>
  <path fill="#B9B0D9" d="M245.344 53.219V35.812c0-1.333-.271-2.49-.813-3.468-.521-1-1.312-1.771-2.375-2.313-1.062-.541-2.375-.812-3.937-.812-1.459 0-2.74.25-3.844.75-1.083.5-1.937 1.156-2.563 1.968-.604.813-.906 1.688-.906 2.625h-5.781c0-1.208.313-2.406.937-3.593.626-1.188 1.521-2.26 2.688-3.219 1.188-.98 2.604-1.75 4.25-2.313 1.667-.583 3.521-.875 5.562-.875 2.459 0 4.626.417 6.5 1.25 1.896.834 3.376 2.094 4.438 3.782 1.083 1.666 1.625 3.76 1.625 6.281v15.75c0 1.125.094 2.323.281 3.594.209 1.27.511 2.364.906 3.281v.5h-6.031c-.291-.667-.521-1.552-.687-2.656a21.377 21.377 0 0 1-.25-3.125Zm1-14.719.062 4.063h-5.844c-1.645 0-3.114.135-4.406.406-1.291.25-2.375.635-3.25 1.156-.875.52-1.541 1.177-2 1.969-.458.77-.687 1.677-.687 2.718 0 1.063.239 2.032.719 2.907.479.875 1.197 1.573 2.156 2.093.979.5 2.177.75 3.594.75 1.77 0 3.333-.374 4.687-1.124 1.354-.75 2.427-1.667 3.219-2.75.812-1.084 1.25-2.136 1.312-3.157l2.469 2.782c-.146.874-.542 1.843-1.187 2.906-.646 1.062-1.511 2.083-2.594 3.062-1.063.959-2.334 1.76-3.813 2.407-1.458.624-3.104.937-4.937.937-2.292 0-4.302-.448-6.032-1.344-1.708-.896-3.041-2.093-4-3.593-.937-1.521-1.406-3.22-1.406-5.094 0-1.813.354-3.407 1.063-4.782.708-1.395 1.729-2.552 3.062-3.468 1.334-.938 2.938-1.646 4.813-2.125 1.875-.48 3.968-.719 6.281-.719h6.719ZM260.188 11H266v41.438L265.5 59h-5.312V11Zm28.656 30.813v.656c0 2.458-.292 4.74-.875 6.843-.584 2.084-1.438 3.896-2.563 5.438-1.125 1.542-2.5 2.74-4.125 3.594-1.625.854-3.489 1.281-5.593 1.281-2.146 0-4.032-.365-5.657-1.094a11.116 11.116 0 0 1-4.062-3.218c-1.104-1.396-1.99-3.084-2.657-5.063-.645-1.98-1.093-4.208-1.343-6.688v-2.874c.25-2.5.698-4.74 1.343-6.72.667-1.978 1.553-3.666 2.657-5.062a10.701 10.701 0 0 1 4.062-3.218c1.604-.75 3.469-1.125 5.594-1.125 2.125 0 4.01.416 5.656 1.25a11.118 11.118 0 0 1 4.125 3.5c1.125 1.52 1.979 3.343 2.563 5.468.583 2.104.875 4.448.875 7.032Zm-5.813.656v-.657c0-1.687-.156-3.27-.469-4.75-.312-1.5-.812-2.812-1.5-3.937a7.464 7.464 0 0 0-2.718-2.688c-1.125-.666-2.511-1-4.156-1-1.459 0-2.73.25-3.813.75a8.238 8.238 0 0 0-2.719 2.032 10.8 10.8 0 0 0-1.844 2.875 16.525 16.525 0 0 0-1.031 3.312v7.532a16.084 16.084 0 0 0 1.625 4.218 9.829 9.829 0 0 0 3.063 3.282c1.291.854 2.885 1.28 4.781 1.28 1.562 0 2.896-.312 4-.937a7.552 7.552 0 0 0 2.719-2.656c.708-1.125 1.229-2.427 1.562-3.906.334-1.48.5-3.063.5-4.75Zm11.594 0v-.719c0-2.438.354-4.698 1.063-6.781.708-2.104 1.729-3.927 3.062-5.469a13.66 13.66 0 0 1 4.844-3.625c1.896-.875 4.021-1.313 6.375-1.313 2.375 0 4.51.438 6.406 1.313a13.59 13.59 0 0 1 4.875 3.625c1.354 1.542 2.385 3.365 3.094 5.469.708 2.083 1.062 4.343 1.062 6.781v.719c0 2.437-.354 4.698-1.062 6.781-.709 2.083-1.74 3.906-3.094 5.469a14.171 14.171 0 0 1-4.844 3.625c-1.875.854-4 1.281-6.375 1.281s-4.51-.427-6.406-1.281a14.493 14.493 0 0 1-4.875-3.625c-1.333-1.563-2.354-3.386-3.062-5.469-.709-2.083-1.063-4.344-1.063-6.781Zm5.781-.719v.719c0 1.687.198 3.281.594 4.781.396 1.48.99 2.792 1.781 3.938a9.022 9.022 0 0 0 3.031 2.718c1.209.646 2.615.969 4.219.969 1.584 0 2.969-.323 4.157-.969a8.731 8.731 0 0 0 3-2.718c.791-1.146 1.385-2.459 1.781-3.938.416-1.5.625-3.094.625-4.781v-.719c0-1.667-.209-3.24-.625-4.719-.396-1.5-1-2.823-1.813-3.968a8.602 8.602 0 0 0-3-2.75c-1.187-.667-2.583-1-4.187-1-1.584 0-2.979.333-4.188 1-1.187.666-2.187 1.583-3 2.75-.791 1.145-1.385 2.468-1.781 3.968-.396 1.48-.594 3.052-.594 4.719Zm52.938 9.438v-26h5.812V59h-5.531l-.281-7.813Zm1.094-7.126 2.406-.062c0 2.25-.24 4.333-.719 6.25-.458 1.896-1.208 3.542-2.25 4.938-1.042 1.395-2.406 2.49-4.094 3.28-1.687.772-3.739 1.157-6.156 1.157-1.646 0-3.156-.24-4.531-.719a9.054 9.054 0 0 1-3.5-2.218c-.979-1-1.74-2.303-2.282-3.907-.52-1.604-.781-3.531-.781-5.781V25.187h5.781v21.875c0 1.521.167 2.782.5 3.782.355.979.823 1.76 1.407 2.343a5.21 5.21 0 0 0 2 1.188c.75.23 1.521.344 2.312.344 2.459 0 4.407-.469 5.844-1.407a8.017 8.017 0 0 0 3.094-3.843c.646-1.625.969-3.427.969-5.407Zm27.687-18.874v4.437h-18.281v-4.438h18.281Zm-12.094-8.22h5.781v33.657c0 1.146.178 2.01.532 2.594.354.583.812.968 1.375 1.156a5.69 5.69 0 0 0 1.812.281c.479 0 .979-.041 1.5-.125a36.41 36.41 0 0 0 1.219-.25l.031 4.719c-.458.146-1.062.281-1.812.406-.729.146-1.615.219-2.657.219-1.416 0-2.718-.281-3.906-.844-1.187-.562-2.135-1.5-2.844-2.812-.687-1.334-1.031-3.125-1.031-5.375V16.969Zm40.5 14.938V59h-5.812V25.187h5.5l.312 6.72Zm-1.187 8.907-2.688-.094c.021-2.313.323-4.448.906-6.407.584-1.979 1.448-3.697 2.594-5.156a11.526 11.526 0 0 1 4.282-3.375c1.708-.812 3.687-1.218 5.937-1.218 1.583 0 3.042.229 4.375.687a8.82 8.82 0 0 1 3.469 2.094c.979.958 1.739 2.187 2.281 3.687s.812 3.313.812 5.438V59h-5.781V36.75c0-1.77-.302-3.188-.906-4.25-.583-1.063-1.417-1.833-2.5-2.313-1.083-.5-2.354-.75-3.813-.75-1.708 0-3.135.303-4.281.907a7.233 7.233 0 0 0-2.75 2.5c-.687 1.062-1.187 2.281-1.5 3.656a20.492 20.492 0 0 0-.437 4.313Zm21.906-3.188-3.875 1.188c.021-1.855.323-3.636.906-5.344a14.504 14.504 0 0 1 2.594-4.563c1.146-1.333 2.552-2.385 4.219-3.156 1.666-.792 3.573-1.188 5.718-1.188 1.813 0 3.417.24 4.813.72 1.417.478 2.604 1.218 3.563 2.218.979.98 1.718 2.24 2.218 3.781.5 1.542.75 3.375.75 5.5V59h-5.812V36.719c0-1.896-.302-3.365-.906-4.407-.584-1.062-1.417-1.802-2.5-2.218-1.063-.438-2.334-.657-3.813-.657-1.271 0-2.396.22-3.375.657a6.98 6.98 0 0 0-2.469 1.812 7.922 7.922 0 0 0-1.531 2.594 9.64 9.64 0 0 0-.5 3.125Zm43.688 22c-2.355 0-4.49-.396-6.407-1.188a14.52 14.52 0 0 1-4.906-3.406c-1.354-1.458-2.396-3.187-3.125-5.187-.729-2-1.094-4.188-1.094-6.563V41.97c0-2.75.406-5.198 1.219-7.344.813-2.167 1.917-4 3.313-5.5 1.395-1.5 2.979-2.635 4.75-3.406a13.639 13.639 0 0 1 5.5-1.157c2.416 0 4.5.417 6.25 1.25 1.77.834 3.218 2 4.343 3.5 1.125 1.48 1.959 3.23 2.5 5.25.542 2 .813 4.188.813 6.563v2.594h-25.25V39h19.468v-.438a14.399 14.399 0 0 0-.937-4.374c-.521-1.417-1.354-2.584-2.5-3.5-1.146-.917-2.708-1.375-4.687-1.375-1.313 0-2.521.28-3.626.843-1.104.542-2.052 1.354-2.843 2.438-.792 1.083-1.407 2.406-1.844 3.968-.437 1.563-.656 3.365-.656 5.407v1.312c0 1.604.219 3.115.656 4.532.458 1.395 1.115 2.624 1.969 3.687A9.44 9.44 0 0 0 471 54c1.25.604 2.667.906 4.25.906 2.042 0 3.771-.416 5.188-1.25 1.416-.833 2.656-1.948 3.718-3.343l3.5 2.78c-.729 1.105-1.656 2.157-2.781 3.157-1.125 1-2.51 1.813-4.156 2.438-1.625.624-3.552.937-5.781.937Z"/>
</svg>
