<svg xmlns="http://www.w3.org/2000/svg" width="712" height="75" fill="none" viewBox="0 0 712 75">
  <path fill="#2B1867" d="M.586 36.586a2 2 0 0 0 0 2.828l12.728 12.728a2 2 0 1 0 2.828-2.828L4.828 38l11.314-11.314a2 2 0 1 0-2.828-2.828L.586 36.586ZM199 36H2v4h197v-4Zm512.414 3.414a2 2 0 0 0 0-2.828l-12.728-12.728a2 2 0 1 0-2.828 2.828L707.172 38l-11.314 11.314a2 2 0 0 0 2.828 2.828l12.728-12.728ZM710 36H513v4h197v-4Z"/>
  <path fill="#B9B0D9" d="M212.938 54.875c1.374 0 2.645-.281 3.812-.844 1.167-.562 2.125-1.333 2.875-2.312a6.44 6.44 0 0 0 1.281-3.407h5.5c-.104 2-.781 3.865-2.031 5.594-1.229 1.709-2.844 3.094-4.844 4.157-2 1.041-4.198 1.562-6.593 1.562-2.542 0-4.761-.448-6.657-1.344-1.875-.896-3.437-2.125-4.687-3.687-1.229-1.563-2.156-3.354-2.782-5.375-.604-2.042-.906-4.198-.906-6.469v-1.313c0-2.27.302-4.416.906-6.437.626-2.042 1.553-3.844 2.782-5.406 1.25-1.563 2.812-2.792 4.687-3.688 1.896-.896 4.115-1.343 6.657-1.343 2.645 0 4.958.541 6.937 1.625 1.979 1.062 3.531 2.52 4.656 4.375 1.146 1.833 1.771 3.916 1.875 6.25h-5.5c-.104-1.396-.5-2.657-1.187-3.782a7.41 7.41 0 0 0-2.75-2.687c-1.146-.688-2.49-1.032-4.031-1.032-1.771 0-3.261.355-4.469 1.063a7.825 7.825 0 0 0-2.844 2.813c-.687 1.166-1.187 2.468-1.5 3.906a21.46 21.46 0 0 0-.437 4.343v1.313c0 1.48.145 2.938.437 4.375.292 1.438.781 2.74 1.469 3.906a8.163 8.163 0 0 0 2.844 2.813c1.208.687 2.708 1.031 4.5 1.031Zm18.437-12.406v-.719c0-2.438.354-4.698 1.063-6.781.708-2.104 1.729-3.927 3.062-5.469a13.66 13.66 0 0 1 4.844-3.625c1.896-.875 4.021-1.313 6.375-1.313 2.375 0 4.51.438 6.406 1.313A13.59 13.59 0 0 1 258 29.5c1.354 1.542 2.385 3.365 3.094 5.469.708 2.083 1.062 4.343 1.062 6.781v.719c0 2.437-.354 4.698-1.062 6.781-.709 2.083-1.74 3.906-3.094 5.469a14.171 14.171 0 0 1-4.844 3.625c-1.875.854-4 1.281-6.375 1.281s-4.51-.427-6.406-1.281a14.493 14.493 0 0 1-4.875-3.625c-1.333-1.563-2.354-3.386-3.062-5.469-.709-2.083-1.063-4.344-1.063-6.781Zm5.781-.719v.719c0 1.687.198 3.281.594 4.781.396 1.48.99 2.792 1.781 3.938a9.022 9.022 0 0 0 3.031 2.718c1.209.646 2.615.969 4.219.969 1.584 0 2.969-.323 4.157-.969a8.731 8.731 0 0 0 3-2.718c.791-1.146 1.385-2.459 1.781-3.938.416-1.5.625-3.094.625-4.781v-.719c0-1.667-.209-3.24-.625-4.719-.396-1.5-1-2.823-1.813-3.968a8.602 8.602 0 0 0-3-2.75c-1.187-.667-2.583-1-4.187-1-1.584 0-2.979.333-4.188 1-1.187.666-2.187 1.583-3 2.75-.791 1.145-1.385 2.468-1.781 3.968-.396 1.48-.594 3.052-.594 4.719Zm38.032-9.344V59h-5.782V25.187h5.469l.313 7.22Zm-1.376 8.407-2.406-.094c.021-2.313.365-4.448 1.032-6.407.666-1.979 1.604-3.697 2.812-5.156a12.532 12.532 0 0 1 4.312-3.375c1.688-.812 3.553-1.218 5.594-1.218 1.667 0 3.167.229 4.5.687a8.146 8.146 0 0 1 3.406 2.125c.959.98 1.688 2.25 2.188 3.813.5 1.541.75 3.427.75 5.656V59h-5.812V36.781c0-1.77-.261-3.187-.782-4.25-.521-1.083-1.281-1.864-2.281-2.343-1-.5-2.229-.75-3.687-.75-1.438 0-2.75.302-3.938.906a9.41 9.41 0 0 0-3.031 2.5c-.834 1.062-1.49 2.281-1.969 3.656a13.37 13.37 0 0 0-.688 4.313Zm45.126-15.626v4.438h-18.282v-4.438h18.282Zm-12.094-8.218h5.781v33.656c0 1.146.177 2.01.531 2.594.354.583.813.968 1.375 1.156a5.701 5.701 0 0 0 1.813.281c.479 0 .979-.041 1.5-.125.541-.104.948-.187 1.218-.25l.032 4.719c-.459.146-1.063.281-1.813.406-.729.146-1.614.219-2.656.219-1.417 0-2.719-.281-3.906-.844-1.188-.562-2.136-1.5-2.844-2.812-.687-1.334-1.031-3.125-1.031-5.375V16.969Zm38.812 36.25V35.812c0-1.333-.271-2.49-.812-3.468-.521-1-1.313-1.771-2.375-2.313-1.063-.541-2.375-.812-3.938-.812-1.458 0-2.739.25-3.843.75-1.084.5-1.938 1.156-2.563 1.968-.604.813-.906 1.688-.906 2.625h-5.781c0-1.208.312-2.406.937-3.593.625-1.188 1.521-2.26 2.687-3.219 1.188-.98 2.605-1.75 4.25-2.313 1.667-.583 3.521-.875 5.563-.875 2.458 0 4.625.417 6.5 1.25 1.896.834 3.375 2.094 4.437 3.782 1.084 1.666 1.626 3.76 1.626 6.281v15.75c0 1.125.093 2.323.281 3.594.208 1.27.51 2.364.906 3.281v.5h-6.031c-.292-.667-.521-1.552-.688-2.656a21.517 21.517 0 0 1-.25-3.125Zm1-14.719.063 4.063h-5.844c-1.646 0-3.115.135-4.406.406-1.292.25-2.375.635-3.25 1.156-.875.52-1.542 1.177-2 1.969-.459.77-.688 1.677-.688 2.718 0 1.063.24 2.032.719 2.907s1.198 1.573 2.156 2.093c.979.5 2.177.75 3.594.75 1.771 0 3.333-.374 4.688-1.124 1.354-.75 2.427-1.667 3.218-2.75.813-1.084 1.25-2.136 1.313-3.157l2.469 2.782c-.146.874-.542 1.843-1.188 2.906-.646 1.062-1.51 2.083-2.594 3.062-1.062.959-2.333 1.76-3.812 2.407-1.459.624-3.104.937-4.938.937-2.291 0-4.302-.448-6.031-1.344-1.708-.896-3.042-2.093-4-3.593-.937-1.521-1.406-3.22-1.406-5.094 0-1.813.354-3.407 1.062-4.782.709-1.395 1.729-2.552 3.063-3.468 1.333-.938 2.937-1.646 4.812-2.125 1.875-.48 3.969-.719 6.282-.719h6.718Zm27.406 16.375c1.376 0 2.646-.281 3.813-.844 1.167-.562 2.125-1.333 2.875-2.312a6.44 6.44 0 0 0 1.281-3.407h5.5c-.104 2-.781 3.865-2.031 5.594-1.229 1.709-2.844 3.094-4.844 4.157-2 1.041-4.198 1.562-6.594 1.562-2.541 0-4.76-.448-6.656-1.344-1.875-.896-3.437-2.125-4.687-3.687-1.229-1.563-2.157-3.354-2.781-5.375-.605-2.042-.907-4.198-.907-6.469v-1.313c0-2.27.302-4.416.907-6.437.624-2.042 1.552-3.844 2.781-5.406 1.25-1.563 2.812-2.792 4.687-3.688 1.896-.896 4.115-1.343 6.656-1.343 2.646 0 4.959.541 6.938 1.625 1.979 1.062 3.531 2.52 4.656 4.375 1.146 1.833 1.771 3.916 1.875 6.25h-5.5c-.104-1.396-.5-2.657-1.187-3.782a7.41 7.41 0 0 0-2.75-2.687c-1.146-.688-2.49-1.032-4.032-1.032-1.77 0-3.26.355-4.468 1.063a7.825 7.825 0 0 0-2.844 2.813c-.688 1.166-1.188 2.468-1.5 3.906a21.46 21.46 0 0 0-.438 4.343v1.313c0 1.48.146 2.938.438 4.375.292 1.438.781 2.74 1.469 3.906a8.169 8.169 0 0 0 2.843 2.813c1.209.687 2.709 1.031 4.5 1.031Zm34.126-29.688v4.438h-18.282v-4.438h18.282Zm-12.094-8.218h5.781v33.656c0 1.146.177 2.01.531 2.594.354.583.813.968 1.375 1.156a5.701 5.701 0 0 0 1.813.281c.479 0 .979-.041 1.5-.125.541-.104.948-.187 1.218-.25l.032 4.719c-.459.146-1.063.281-1.813.406-.729.146-1.614.219-2.656.219-1.417 0-2.719-.281-3.906-.844-1.188-.562-2.136-1.5-2.844-2.812-.687-1.334-1.031-3.125-1.031-5.375V16.969Zm40.5 14.937V59h-5.813V25.187h5.5l.313 6.72Zm-1.188 8.907-2.687-.094c.021-2.313.323-4.448.906-6.407.583-1.979 1.448-3.697 2.594-5.156a11.53 11.53 0 0 1 4.281-3.375c1.708-.812 3.688-1.218 5.938-1.218 1.583 0 3.041.229 4.374.687a8.813 8.813 0 0 1 3.469 2.094c.979.958 1.74 2.187 2.281 3.687.542 1.5.813 3.313.813 5.438V59h-5.781V36.75c0-1.77-.302-3.188-.906-4.25-.584-1.063-1.417-1.833-2.5-2.313-1.084-.5-2.355-.75-3.813-.75-1.708 0-3.135.303-4.281.907a7.226 7.226 0 0 0-2.75 2.5c-.688 1.062-1.188 2.281-1.5 3.656a20.425 20.425 0 0 0-.438 4.313Zm21.906-3.188-3.874 1.188c.02-1.855.322-3.636.906-5.344a14.485 14.485 0 0 1 2.594-4.563c1.145-1.333 2.552-2.385 4.218-3.156 1.667-.792 3.573-1.188 5.719-1.188 1.813 0 3.417.24 4.813.72 1.416.478 2.604 1.218 3.562 2.218.979.98 1.719 2.24 2.219 3.781.5 1.542.75 3.375.75 5.5V59h-5.813V36.719c0-1.896-.302-3.365-.906-4.407-.583-1.062-1.417-1.802-2.5-2.218-1.062-.438-2.333-.657-3.812-.657-1.271 0-2.396.22-3.376.657a6.968 6.968 0 0 0-2.468 1.812 7.924 7.924 0 0 0-1.532 2.594 9.64 9.64 0 0 0-.5 3.125Zm43.688 22c-2.354 0-4.49-.396-6.406-1.188a14.51 14.51 0 0 1-4.906-3.406c-1.355-1.458-2.396-3.187-3.126-5.187-.729-2-1.093-4.188-1.093-6.563V41.97c0-2.75.406-5.198 1.219-7.344.812-2.167 1.916-4 3.312-5.5s2.979-2.635 4.75-3.406a13.643 13.643 0 0 1 5.5-1.157c2.417 0 4.5.417 6.25 1.25 1.771.834 3.219 2 4.344 3.5 1.125 1.48 1.958 3.23 2.5 5.25.541 2 .812 4.188.812 6.563v2.594h-25.25V39h19.469v-.438a14.428 14.428 0 0 0-.937-4.374c-.521-1.417-1.355-2.584-2.5-3.5-1.146-.917-2.709-1.375-4.688-1.375-1.312 0-2.521.28-3.625.843-1.104.542-2.052 1.354-2.844 2.438-.791 1.083-1.406 2.406-1.843 3.968-.438 1.563-.657 3.365-.657 5.407v1.312c0 1.604.219 3.115.657 4.532.458 1.395 1.114 2.624 1.968 3.687a9.44 9.44 0 0 0 3.156 2.5c1.25.604 2.667.906 4.25.906 2.042 0 3.771-.416 5.188-1.25 1.417-.833 2.656-1.948 3.719-3.343l3.5 2.78c-.729 1.105-1.657 2.157-2.781 3.157-1.126 1-2.511 1.813-4.157 2.438-1.625.624-3.552.937-5.781.937Z"/>
</svg>
