<svg xmlns="http://www.w3.org/2000/svg" width="202" height="195" fill="none" viewBox="0 0 202 195">
  <path fill="#B9B0D9" d="M90.73 8.092c44.245-6.508 89.829 24.18 100.683 67.592 5.622 20.475 3.87 42.9-4.964 62.23-11.634 26.544-36.604 46.653-64.933 52.528-19.056 4.217-39.426 1.974-57.192-6.118-25.652-11.335-45.56-35.052-51.887-62.449-5.866-23.449-1.85-49.043 10.538-69.713C37.358 28.202 62.96 11.407 90.73 8.092Zm-4.454 7.874c-13.288 2.583-25.992 8.336-36.652 16.672C19.908 55.185 8.543 98.256 23.34 132.527c13.97 35.49 53.64 58.134 91.24 51.967 27.453-3.9 52.447-22.035 64.324-47.165 11.244-22.718 11.487-50.53.657-73.442-15.454-34.808-56.025-55.624-93.285-47.921Z"/>
  <path fill="#B9B0D9" d="M38.891 57.33c13.58-18.988 35.776-30.834 59.043-32.029.097 49.774.073 99.523.024 149.297-22.901-.902-45.39-12.431-58.434-31.468-9.175-12.504-13.386-27.861-14.018-43.217 4.429.025 8.858.025 13.288.025.097 27.275 19.445 52.381 45.73 59.475.024-39.586.024-79.146 0-118.707-13.63 3.998-25.53 12.383-34.316 23.498-3.772-2.316-7.545-4.583-11.317-6.874ZM106.5 25.399c4.43.56 8.859 1.097 13.288 1.608.219 44.144.049 88.262.122 132.406 26.236-7.142 45.584-32.2 45.706-59.476 4.429 0 8.883 0 13.312-.024-.511 22.888-11.098 45.606-29.643 59.329-12.193 9.555-27.428 14.552-42.785 15.38-.097-49.749-.097-99.498 0-149.223Z"/>
</svg>
