<?xml version="1.0" encoding="UTF-8" ?>
<!DOCTYPE svg PUBLIC "-//W3C//DTD SVG 1.1//EN" "http://www.w3.org/Graphics/SVG/1.1/DTD/svg11.dtd">
<svg width="83pt" height="80pt" viewBox="0 0 83 80" version="1.1" xmlns="http://www.w3.org/2000/svg">
<g id="#83d95aff">
</g>
<g id="#ffffffff">
<path fill="#ffffff" opacity="1.00" d=" M 37.28 3.32 C 55.46 0.65 74.19 13.24 78.65 31.05 C 80.96 39.45 80.24 48.65 76.61 56.58 C 71.83 67.47 61.57 75.72 49.93 78.13 C 42.10 79.86 33.73 78.94 26.43 75.62 C 15.89 70.97 7.71 61.24 5.11 50.00 C 2.70 40.38 4.35 29.88 9.44 21.40 C 15.35 11.57 25.87 4.68 37.28 3.32 M 35.45 6.55 C 29.99 7.61 24.77 9.97 20.39 13.39 C 8.18 22.64 3.51 40.31 9.59 54.37 C 15.33 68.93 31.63 78.22 47.08 75.69 C 58.36 74.09 68.63 66.65 73.51 56.34 C 78.13 47.02 78.23 35.61 73.78 26.21 C 67.43 11.93 50.76 3.39 35.45 6.55 Z" />
<path fill="#ffffff" opacity="1.00" d=" M 15.98 23.52 C 21.56 15.73 30.68 10.87 40.24 10.38 C 40.28 30.80 40.27 51.21 40.25 71.63 C 30.84 71.26 21.60 66.53 16.24 58.72 C 12.47 53.59 10.74 47.29 10.48 40.99 C 12.30 41.00 14.12 41.00 15.94 41.00 C 15.98 52.19 23.93 62.49 34.73 65.40 C 34.74 49.16 34.74 32.93 34.73 16.70 C 29.13 18.34 24.24 21.78 20.63 26.34 C 19.08 25.39 17.53 24.46 15.98 23.52 Z" />
<path fill="#ffffff" opacity="1.00" d=" M 43.76 10.42 C 45.58 10.65 47.40 10.87 49.22 11.08 C 49.31 29.19 49.24 47.29 49.27 65.40 C 60.05 62.47 68.00 52.19 68.05 41.00 C 69.87 41.00 71.70 41.00 73.52 40.99 C 73.31 50.38 68.96 59.70 61.34 65.33 C 56.33 69.25 50.07 71.30 43.76 71.64 C 43.72 51.23 43.72 30.82 43.76 10.42 Z" />
</g>
</svg>
