<svg xmlns="http://www.w3.org/2000/svg" width="36" height="152" fill="none" viewBox="0 0 36 152">
  <path fill="#3105BC" d="M22.94 151.061a1.502 1.502 0 0 0 2.12 0l9.547-9.546a1.5 1.5 0 0 0-2.122-2.122L24 147.879l-8.485-8.486a1.501 1.501 0 0 0-2.122 2.122l9.546 9.546ZM22.5 0v150h3V0h-3ZM5.537 6.844c0-.2-.031-.375-.094-.528a1.004 1.004 0 0 0-.316-.421 2.483 2.483 0 0 0-.621-.358 8.664 8.664 0 0 0-.996-.346 9.162 9.162 0 0 1-1.143-.416 3.992 3.992 0 0 1-.873-.533 2.104 2.104 0 0 1-.556-.685 1.952 1.952 0 0 1-.194-.885 2.076 2.076 0 0 1 .791-1.652 2.84 2.84 0 0 1 .92-.493 3.785 3.785 0 0 1 1.19-.175c.64 0 1.183.123 1.628.369.45.242.791.56 1.026.955.234.39.351.808.351 1.254H5.525c0-.32-.068-.604-.205-.85a1.413 1.413 0 0 0-.62-.586c-.278-.144-.63-.217-1.055-.217-.403 0-.735.06-.997.182a1.317 1.317 0 0 0-.586.492 1.345 1.345 0 0 0-.187.71c0 .179.037.343.111.491.078.145.198.28.358.405.164.125.37.24.62.345.255.106.557.207.91.305.483.137.901.29 1.253.457.352.168.64.357.867.568.23.207.4.444.51.71.113.261.17.558.17.89 0 .348-.07.662-.211.943-.14.282-.342.522-.604.721-.261.2-.576.354-.943.463-.363.105-.77.158-1.219.158-.394 0-.783-.055-1.166-.164a3.475 3.475 0 0 1-1.037-.492 2.58 2.58 0 0 1-.744-.809 2.244 2.244 0 0 1-.275-1.125H1.6c0 .293.056.545.17.756.113.207.267.38.462.516.2.137.424.238.674.305.254.062.518.093.791.093.395 0 .729-.054 1.002-.164.274-.11.48-.265.621-.469a1.21 1.21 0 0 0 .217-.72Zm.604 13.443h1.125a3.588 3.588 0 0 1-.463 1.447 2.71 2.71 0 0 1-1.06 1.014c-.458.246-1.028.37-1.712.37-.5 0-.955-.095-1.365-.282a3.034 3.034 0 0 1-1.049-.797 3.73 3.73 0 0 1-.68-1.248 5.327 5.327 0 0 1-.234-1.629v-.85c0-.597.078-1.138.235-1.623.16-.488.388-.906.685-1.254a3.05 3.05 0 0 1 1.084-.802 3.47 3.47 0 0 1 1.424-.281c.644 0 1.19.12 1.635.363.445.242.79.578 1.037 1.008.25.425.404.92.463 1.482H6.14a3.135 3.135 0 0 0-.305-1.025 1.584 1.584 0 0 0-.633-.668c-.273-.157-.63-.235-1.072-.235-.38 0-.713.073-1.002.217-.285.145-.525.35-.72.615a2.863 2.863 0 0 0-.434.955 4.856 4.856 0 0 0-.147 1.237v.861c0 .418.043.81.129 1.178.09.367.225.69.404.967.18.277.409.496.686.656.277.156.605.234.984.234.48 0 .864-.076 1.149-.228.285-.153.5-.371.644-.657.149-.285.254-.627.317-1.025ZM.99 28.47h2.823c.641 0 1.182.097 1.623.293.446.195.784.484 1.014.867.235.379.352.846.352 1.4 0 .39-.08.748-.24 1.073-.157.32-.383.593-.68.82a3 3 0 0 1-1.055.498l-.316.123H1.857l-.011-.92H3.85c.406 0 .744-.07 1.013-.21a1.49 1.49 0 0 0 .61-.581c.136-.242.205-.51.205-.803a1.83 1.83 0 0 0-.194-.861 1.29 1.29 0 0 0-.609-.568c-.273-.137-.627-.206-1.06-.206H2.12V37H.991v-8.531ZM5.976 37l-2.075-3.867 1.178-.006 2.104 3.803V37H5.977Zm1.582 9.465v.539c0 .64-.08 1.215-.24 1.723-.16.507-.391.939-.692 1.295a3 3 0 0 1-1.084.814 3.399 3.399 0 0 1-1.406.281 3.38 3.38 0 0 1-1.389-.281 3.122 3.122 0 0 1-1.09-.814 3.795 3.795 0 0 1-.709-1.295c-.168-.508-.252-1.082-.252-1.723v-.54c0-.64.082-1.212.246-1.716.168-.508.405-.94.71-1.295.304-.36.665-.633 1.083-.82a3.38 3.38 0 0 1 1.389-.281c.52 0 .988.093 1.406.28.422.188.783.462 1.084.821.305.356.537.787.697 1.295.165.504.247 1.076.247 1.717Zm-1.12.539v-.55c0-.509-.052-.958-.158-1.349a2.793 2.793 0 0 0-.45-.984 1.946 1.946 0 0 0-.733-.603 2.223 2.223 0 0 0-.973-.206c-.352 0-.67.069-.955.206a2.022 2.022 0 0 0-.727.603 2.95 2.95 0 0 0-.463.984c-.109.391-.164.84-.164 1.348v.55c0 .513.055.966.164 1.36.11.39.266.721.47.99.206.266.45.467.732.604.285.137.603.205.955.205.367 0 .693-.068.978-.205a1.9 1.9 0 0 0 .72-.604c.2-.269.35-.6.452-.99a5.45 5.45 0 0 0 .152-1.36ZM6.164 64.08V65H1.898v-.92h4.266Zm-4.043-7.61V65H.991v-8.531h1.13Zm4.043 21.61V79H1.898v-.92h4.266Zm-4.043-7.61V79H.991v-8.531h1.13ZM3.3 107H1.518l.011-.92H3.3c.61 0 1.117-.127 1.523-.381a2.38 2.38 0 0 0 .914-1.078c.207-.465.31-1.008.31-1.629v-.521a4.41 4.41 0 0 0-.175-1.301 2.634 2.634 0 0 0-.516-.967 2.18 2.18 0 0 0-.832-.603 2.86 2.86 0 0 0-1.119-.206H1.482v-.925h1.922c.559 0 1.069.094 1.53.281.46.184.857.451 1.189.803a3.5 3.5 0 0 1 .773 1.265c.18.493.27 1.047.27 1.664v.51c0 .617-.09 1.174-.27 1.67a3.404 3.404 0 0 1-1.998 2.063 4.402 4.402 0 0 1-1.6.275Zm-1.18-8.531V107H.991v-8.531h1.13Zm5.438 17.996v.539a5.72 5.72 0 0 1-.24 1.723 3.7 3.7 0 0 1-.692 1.294 3 3 0 0 1-1.084.815 3.407 3.407 0 0 1-1.406.281 3.39 3.39 0 0 1-1.389-.281 3.123 3.123 0 0 1-1.09-.815 3.793 3.793 0 0 1-.709-1.294c-.168-.508-.252-1.082-.252-1.723v-.539c0-.641.082-1.213.246-1.717.168-.508.405-.939.71-1.295a3.035 3.035 0 0 1 1.083-.82 3.373 3.373 0 0 1 1.389-.281c.52 0 .988.093 1.406.281a2.97 2.97 0 0 1 1.084.82c.305.356.537.787.697 1.295.165.504.247 1.076.247 1.717Zm-1.12.539v-.551a5.17 5.17 0 0 0-.158-1.348 2.8 2.8 0 0 0-.45-.984 1.935 1.935 0 0 0-.733-.603 2.219 2.219 0 0 0-.973-.206c-.352 0-.67.069-.955.206a2.01 2.01 0 0 0-.727.603 2.974 2.974 0 0 0-.463.984c-.109.391-.164.84-.164 1.348v.551c0 .512.055.965.164 1.359.11.391.266.721.47.991.206.265.45.466.732.603.285.137.603.205.955.205.367 0 .693-.068.978-.205.285-.137.526-.338.72-.603.2-.27.35-.6.452-.991.102-.394.152-.847.152-1.359Zm-3.205 15.418 1.694-5.953h.82l-.475 2.314L3.451 135h-.814l.597-2.578Zm-1.752-5.953 1.348 5.836.404 2.695h-.808l-2.069-8.531h1.125Zm6.457 5.83 1.319-5.83h1.13L8.327 135h-.808l.421-2.701Zm-2.068-5.83 1.647 5.953.597 2.578H7.3l-1.758-6.217-.48-2.314h.808Zm1.682 14V149H6.416l-4.295-6.58V149H.991v-8.531h1.13l4.313 6.597v-6.597h1.119Z"/>
</svg>
