<svg xmlns="http://www.w3.org/2000/svg" width="37" height="152" fill="none" viewBox="0 0 37 152">
  <path fill="#3105BC" d="M26.06.94a1.5 1.5 0 0 0-2.12 0l-9.547 9.545a1.5 1.5 0 1 0 2.122 2.122L25 4.12l8.485 8.486a1.5 1.5 0 1 0 2.122-2.122L26.06.94ZM23.5 137l-7.16 15h17.32l-7.16-15h-3Zm0-135v136.5h3V2h-3ZM5.537 22.844c0-.2-.031-.375-.094-.528a1.005 1.005 0 0 0-.316-.421 2.483 2.483 0 0 0-.621-.358 8.664 8.664 0 0 0-.996-.346 9.168 9.168 0 0 1-1.143-.416 3.995 3.995 0 0 1-.873-.533 2.103 2.103 0 0 1-.556-.685 1.952 1.952 0 0 1-.194-.885 2.075 2.075 0 0 1 .791-1.652c.258-.211.565-.375.92-.493a3.788 3.788 0 0 1 1.19-.175c.64 0 1.183.123 1.628.369.45.242.791.56 1.026.955.234.39.351.808.351 1.254H5.525c0-.32-.068-.604-.205-.85a1.413 1.413 0 0 0-.62-.586c-.278-.144-.63-.217-1.055-.217-.403 0-.735.06-.997.182a1.316 1.316 0 0 0-.586.492 1.344 1.344 0 0 0-.187.71c0 .179.037.343.111.491.078.145.198.28.358.405.164.125.37.24.62.345.255.106.557.207.91.305.483.137.901.29 1.253.457.352.168.64.357.867.568.23.207.4.444.51.71.113.261.17.558.17.89 0 .348-.07.662-.211.943-.14.282-.342.522-.604.721-.261.2-.576.354-.943.463-.363.105-.77.158-1.219.158-.394 0-.783-.055-1.166-.164a3.472 3.472 0 0 1-1.037-.492 2.578 2.578 0 0 1-.744-.809 2.244 2.244 0 0 1-.275-1.125H1.6c0 .293.056.545.17.756.113.207.267.38.462.516.2.137.424.238.674.305.254.062.518.093.791.093.395 0 .729-.054 1.002-.164.274-.11.48-.265.621-.469a1.21 1.21 0 0 0 .217-.72Zm.604 13.443h1.125a3.588 3.588 0 0 1-.463 1.447 2.71 2.71 0 0 1-1.06 1.014c-.458.246-1.028.37-1.712.37-.5 0-.955-.095-1.365-.282a3.034 3.034 0 0 1-1.049-.797 3.73 3.73 0 0 1-.68-1.248 5.327 5.327 0 0 1-.234-1.629v-.85c0-.597.078-1.138.235-1.622.16-.489.388-.907.685-1.254.3-.348.662-.616 1.084-.803a3.47 3.47 0 0 1 1.424-.281c.644 0 1.19.12 1.635.363.445.242.79.578 1.037 1.008.25.425.404.92.463 1.482H6.14a3.135 3.135 0 0 0-.305-1.025 1.584 1.584 0 0 0-.633-.668c-.273-.157-.63-.235-1.072-.235-.38 0-.713.073-1.002.217-.285.145-.525.35-.72.615a2.863 2.863 0 0 0-.434.956 4.856 4.856 0 0 0-.147 1.236v.861c0 .418.043.81.129 1.178.09.367.225.69.404.967.18.277.409.496.686.656.277.156.605.234.984.234.48 0 .864-.076 1.149-.228.285-.153.5-.371.644-.657.149-.285.254-.627.317-1.025ZM.99 44.47h2.823c.641 0 1.182.097 1.623.293.446.195.784.484 1.014.867.235.379.352.846.352 1.4 0 .39-.08.748-.24 1.073-.157.32-.383.593-.68.82a3 3 0 0 1-1.055.498l-.316.123H1.857l-.011-.92H3.85c.406 0 .744-.07 1.013-.21a1.49 1.49 0 0 0 .61-.581c.136-.242.205-.51.205-.803a1.83 1.83 0 0 0-.194-.861 1.29 1.29 0 0 0-.609-.568c-.273-.137-.627-.206-1.06-.206H2.12V53H.991v-8.531ZM5.976 53l-2.075-3.867 1.178-.006 2.104 3.803V53H5.977Zm1.582 9.465v.539c0 .64-.08 1.215-.24 1.723-.16.507-.391.939-.692 1.294-.3.356-.662.627-1.084.815a3.399 3.399 0 0 1-1.406.281 3.38 3.38 0 0 1-1.389-.281 3.122 3.122 0 0 1-1.09-.814 3.795 3.795 0 0 1-.709-1.295 5.477 5.477 0 0 1-.252-1.723v-.54c0-.64.082-1.212.246-1.716.168-.508.405-.94.71-1.295.304-.36.665-.633 1.083-.82a3.38 3.38 0 0 1 1.389-.281c.52 0 .988.093 1.406.28.422.188.783.462 1.084.821.305.356.537.787.697 1.295.165.504.247 1.076.247 1.717Zm-1.12.539v-.55c0-.509-.052-.958-.158-1.349a2.793 2.793 0 0 0-.45-.984 1.946 1.946 0 0 0-.733-.603 2.223 2.223 0 0 0-.973-.206c-.352 0-.67.069-.955.206a2.022 2.022 0 0 0-.727.603 2.95 2.95 0 0 0-.463.984c-.109.391-.164.84-.164 1.348v.55c0 .513.055.966.164 1.36.11.39.266.721.47.99.206.266.45.467.732.604.285.137.603.205.955.205.367 0 .693-.068.978-.205.285-.137.526-.338.72-.603.2-.27.35-.6.452-.99.102-.395.152-.848.152-1.36ZM6.164 80.08V81H1.898v-.92h4.266Zm-4.043-7.61V81H.991v-8.531h1.13Zm4.043 21.61V95H1.898v-.92h4.266Zm-4.043-7.61V95H.991v-8.531h1.13Zm3.75 28h1.125v5.771c0 .641-.142 1.174-.428 1.6a2.67 2.67 0 0 1-1.136.961 3.682 3.682 0 0 1-1.53.316 3.783 3.783 0 0 1-1.57-.316 2.57 2.57 0 0 1-1.107-.961c-.27-.426-.405-.959-.405-1.6v-5.771h1.12v5.771c0 .446.081.813.246 1.102.164.289.392.504.685.644.297.141.64.211 1.031.211.395 0 .739-.07 1.032-.211.296-.14.527-.355.691-.644.164-.289.246-.656.246-1.102v-5.771Zm-1.734 19.185h-2.28v-.92h2.28c.441 0 .799-.07 1.072-.211.273-.14.473-.335.598-.585.129-.25.193-.536.193-.856a1.82 1.82 0 0 0-.193-.826 1.426 1.426 0 0 0-.598-.621c-.273-.16-.63-.24-1.072-.24H2.12V137H.991v-8.531h3.146c.644 0 1.19.111 1.634.334a2.35 2.35 0 0 1 1.014.926c.23.39.346.837.346 1.341 0 .547-.115 1.014-.346 1.401-.23.386-.568.681-1.014.884-.445.2-.99.299-1.634.299Z"/>
</svg>
