<svg xmlns="http://www.w3.org/2000/svg" width="26" height="27" fill="none" viewBox="0 0 26 27">
  <path fill="#B9B0D9" d="M.913 26.006a.918.918 0 0 1-.883-1.148l1.524-5.695a13.03 13.03 0 0 1-1.548-6.166C.006 5.827 5.834 0 13.003 0 20.173 0 26 5.827 26 12.997s-5.828 12.997-12.997 12.997c-2.188 0-4.328-.544-6.238-1.584l-5.61 1.56a.84.84 0 0 1-.242.036Zm5.972-3.47c.158 0 .315.049.46.121a11.165 11.165 0 0 0 5.658 1.535c6.166 0 11.183-5.017 11.183-11.183 0-6.166-5.017-11.183-11.183-11.183-6.166 0-11.183 5.017-11.183 11.183 0 1.97.52 3.893 1.499 5.586.12.205.157.46.097.689l-1.21 4.522 4.45-1.234a.759.759 0 0 1 .23-.036Z"/>
  <path fill="#B9B0D9" d="M16.316 19.973c-.75 0-1.524-.17-2.334-.52a11.36 11.36 0 0 1-2.26-1.306 18.193 18.193 0 0 1-2.092-1.79 19.282 19.282 0 0 1-1.79-2.091c-.544-.762-.979-1.511-1.293-2.249-.339-.798-.508-1.584-.508-2.333 0-.532.097-1.04.278-1.512a3.66 3.66 0 0 1 .919-1.33c.774-.761 1.886-1.04 2.769-.616.302.133.556.35.75.64l1.402 1.971c.145.194.254.4.338.605.097.242.158.484.158.713 0 .315-.085.629-.255.907a3.185 3.185 0 0 1-.471.604l-.157.17c.072.096.157.217.29.362.254.29.532.605.834.907.302.29.605.58.907.835.145.12.266.217.363.277l.169-.169c.217-.217.435-.387.653-.495.399-.254 1.015-.315 1.56-.085.193.072.386.181.592.326l2.019 1.427c.278.194.496.46.64.762.122.302.17.568.17.846 0 .363-.085.713-.242 1.052a4.102 4.102 0 0 1-.556.846 3.793 3.793 0 0 1-1.318.943 3.908 3.908 0 0 1-1.535.302ZM9.122 7.857c-.072 0-.314 0-.616.302a2.08 2.08 0 0 0-.496.702 2.135 2.135 0 0 0-.157.834c0 .508.12 1.052.362 1.632.254.604.629 1.245 1.088 1.886a16.51 16.51 0 0 0 1.596 1.874 18.18 18.18 0 0 0 1.874 1.608c.629.46 1.27.822 1.91 1.1.92.4 1.766.496 2.455.206.242-.097.46-.266.677-.484.109-.12.194-.242.266-.399a.707.707 0 0 0 .06-.266c0-.024 0-.06-.036-.133l-2.019-1.402a.973.973 0 0 0-.242-.133.874.874 0 0 0-.254.193l-.459.46c-.35.35-.907.447-1.354.29l-.218-.097a5.088 5.088 0 0 1-.943-.665c-.338-.29-.665-.592-1.015-.93a23.143 23.143 0 0 1-.931-1.016 6.615 6.615 0 0 1-.677-.931l-.133-.315a1.33 1.33 0 0 1-.049-.374c0-.339.121-.641.35-.883l.46-.472c.133-.133.182-.205.206-.254a1.286 1.286 0 0 0-.145-.241L9.267 7.955l-.145-.097Z"/>
</svg>
